<svg xmlns="http://www.w3.org/2000/svg" width="495" height="210" viewBox="0 0 495 210" role="img" aria-label="GitHub profile stats with yearly contribution trend">
  <defs>
    <linearGradient id="bg" x1="0" x2="1" y1="0" y2="1">
      <stop offset="0%" stop-color="#1F2937" />
      <stop offset="100%" stop-color="#1B2534" />
    </linearGradient>
    <linearGradient id="area" x1="0" x2="0" y1="0" y2="1">
      <stop offset="0%" stop-color="#6984AA" stop-opacity="0.95" />
      <stop offset="100%" stop-color="#6984AA" stop-opacity="0.05" />
    </linearGradient>
    <style>
      .title { font: 700 21px 'Segoe UI', Arial, sans-serif; fill: #809EC5; }
      .login { font: 700 12px 'Segoe UI', Arial, sans-serif; fill: #BBBFC5; }
      .value { font: 700 12px 'Segoe UI', Arial, sans-serif; fill: #F8FAFC; }
      .axis { font: 600 9px 'Segoe UI', Arial, sans-serif; fill: #BBBFC5; }
      .xaxis { font: 600 8px 'Segoe UI', Arial, sans-serif; fill: #9CA1A9; }
      .meta { font: 600 10px 'Segoe UI', Arial, sans-serif; fill: #798089; }
      .chart-title { font: 700 8px 'Segoe UI', Arial, sans-serif; fill: #809EC5; }
    </style>
  </defs>
  <rect x="0" y="0" width="495" height="210" rx="8" fill="url(#bg)" />
  <rect x="1" y="1" width="493" height="208" rx="7" fill="none" stroke="#566C88" />
  <text x="18" y="26" class="title">ochtum (Ochtum)</text>
  <text x="18" y="45" class="login">@ochtum</text>
  <circle cx="20" cy="66" r="3" fill="#809EC5" />
  <text x="28" y="69" class="value">463 Contributions in 2026</text>
  <circle cx="20" cy="82" r="3" fill="#8085C5" />
  <text x="28" y="85" class="value">22 Public Repositories</text>
  <circle cx="20" cy="98" r="3" fill="#80B7C5" />
  <text x="28" y="101" class="value">44 Private Repositories</text>
  <circle cx="20" cy="114" r="3" fill="#9780C5" />
  <text x="28" y="117" class="value">95 Forked Repositories</text>
  <circle cx="20" cy="130" r="3" fill="#80C5B7" />
  <text x="28" y="133" class="value">Joined GitHub 3 years ago</text>
  <circle cx="20" cy="146" r="3" fill="#B580C5" />
  <text x="28" y="149" class="value">Tokyo</text>
  <text x="365" y="14" class="chart-title">contributions in the last year</text>
  <rect x="224" y="26" width="245" height="132" rx="4" fill="#37404E" fill-opacity="0.34" />
  <line x1="224" y1="158" x2="469" y2="158" stroke="#3C4C62" stroke-opacity="0.55" />
  <text x="475" y="161" class="axis">0</text>
  <line x1="224" y1="151.05" x2="469" y2="151.05" stroke="#3C4C62" stroke-opacity="0.55" />
  <text x="475" y="154.05" class="axis">20</text>
  <line x1="224" y1="144.11" x2="469" y2="144.11" stroke="#3C4C62" stroke-opacity="0.55" />
  <text x="475" y="147.11" class="axis">40</text>
  <line x1="224" y1="137.16" x2="469" y2="137.16" stroke="#3C4C62" stroke-opacity="0.55" />
  <text x="475" y="140.16" class="axis">60</text>
  <line x1="224" y1="130.21" x2="469" y2="130.21" stroke="#3C4C62" stroke-opacity="0.55" />
  <text x="475" y="133.21" class="axis">80</text>
  <line x1="224" y1="123.26" x2="469" y2="123.26" stroke="#3C4C62" stroke-opacity="0.55" />
  <text x="475" y="126.26" class="axis">100</text>
  <line x1="224" y1="116.32" x2="469" y2="116.32" stroke="#3C4C62" stroke-opacity="0.55" />
  <text x="475" y="119.32" class="axis">120</text>
  <line x1="224" y1="109.37" x2="469" y2="109.37" stroke="#3C4C62" stroke-opacity="0.55" />
  <text x="475" y="112.37" class="axis">140</text>
  <line x1="224" y1="102.42" x2="469" y2="102.42" stroke="#3C4C62" stroke-opacity="0.55" />
  <text x="475" y="105.42" class="axis">160</text>
  <line x1="224" y1="95.47" x2="469" y2="95.47" stroke="#3C4C62" stroke-opacity="0.55" />
  <text x="475" y="98.47" class="axis">180</text>
  <line x1="224" y1="88.53" x2="469" y2="88.53" stroke="#3C4C62" stroke-opacity="0.55" />
  <text x="475" y="91.53" class="axis">200</text>
  <line x1="224" y1="81.58" x2="469" y2="81.58" stroke="#3C4C62" stroke-opacity="0.55" />
  <text x="475" y="84.58" class="axis">220</text>
  <line x1="224" y1="74.63" x2="469" y2="74.63" stroke="#3C4C62" stroke-opacity="0.55" />
  <text x="475" y="77.63" class="axis">240</text>
  <line x1="224" y1="67.68" x2="469" y2="67.68" stroke="#3C4C62" stroke-opacity="0.55" />
  <text x="475" y="70.68" class="axis">260</text>
  <line x1="224" y1="60.74" x2="469" y2="60.74" stroke="#3C4C62" stroke-opacity="0.55" />
  <text x="475" y="63.74" class="axis">280</text>
  <line x1="224" y1="53.79" x2="469" y2="53.79" stroke="#3C4C62" stroke-opacity="0.55" />
  <text x="475" y="56.79" class="axis">300</text>
  <line x1="224" y1="46.84" x2="469" y2="46.84" stroke="#3C4C62" stroke-opacity="0.55" />
  <text x="475" y="49.84" class="axis">320</text>
  <line x1="224" y1="39.89" x2="469" y2="39.89" stroke="#3C4C62" stroke-opacity="0.55" />
  <text x="475" y="42.89" class="axis">340</text>
  <line x1="224" y1="32.95" x2="469" y2="32.95" stroke="#3C4C62" stroke-opacity="0.55" />
  <text x="475" y="35.95" class="axis">360</text>
  <line x1="224" y1="26" x2="469" y2="26" stroke="#3C4C62" stroke-opacity="0.55" />
  <text x="475" y="29" class="axis">380</text>
  <path d="M 224 158 L 224 156.96 C 227.4 153.83 237.61 147.35 244.42 138.2 C 251.22 129.05 258.03 101.96 264.83 102.07 C 271.64 102.19 278.44 130.21 285.25 138.89 C 292.06 147.58 298.86 151.81 305.67 154.18 C 312.47 156.55 319.28 153.02 326.08 153.14 C 332.89 153.25 339.69 156.26 346.5 154.87 C 353.31 153.48 360.11 146.77 366.92 144.8 C 373.72 142.83 380.53 142.72 387.33 143.06 C 394.14 143.41 400.94 145.78 407.75 146.88 C 414.56 147.98 421.36 152.04 428.17 149.66 C 434.97 147.29 441.78 152.44 448.58 132.64 C 455.39 112.84 465.6 47.83 469 30.86 L 469 158 Z" fill="url(#area)" stroke="none" />
  <path d="M 224 156.96 C 227.4 153.83 237.61 147.35 244.42 138.2 C 251.22 129.05 258.03 101.96 264.83 102.07 C 271.64 102.19 278.44 130.21 285.25 138.89 C 292.06 147.58 298.86 151.81 305.67 154.18 C 312.47 156.55 319.28 153.02 326.08 153.14 C 332.89 153.25 339.69 156.26 346.5 154.87 C 353.31 153.48 360.11 146.77 366.92 144.8 C 373.72 142.83 380.53 142.72 387.33 143.06 C 394.14 143.41 400.94 145.78 407.75 146.88 C 414.56 147.98 421.36 152.04 428.17 149.66 C 434.97 147.29 441.78 152.44 448.58 132.64 C 455.39 112.84 465.6 47.83 469 30.86" fill="none" stroke="#809EC5" stroke-width="2" />
  <text x="224" y="171" class="xaxis" text-anchor="middle">25/03</text>
  <text x="264.83" y="171" class="xaxis" text-anchor="middle">25/05</text>
  <text x="305.67" y="171" class="xaxis" text-anchor="middle">25/07</text>
  <text x="346.5" y="171" class="xaxis" text-anchor="middle">25/09</text>
  <text x="387.33" y="171" class="xaxis" text-anchor="middle">25/11</text>
  <text x="428.17" y="171" class="xaxis" text-anchor="middle">26/01</text>
  <text x="469" y="171" class="xaxis" text-anchor="middle">26/03</text>
  <text x="18" y="198" class="meta">Updated 2026-03-25 11:56 JST</text>
</svg>

