<svg xmlns="http://www.w3.org/2000/svg" width="495" height="210" viewBox="0 0 495 210" role="img" aria-label="GitHub profile stats with yearly contribution trend">
  <defs>
    <linearGradient id="bg" x1="0" x2="1" y1="0" y2="1">
      <stop offset="0%" stop-color="#1F2937" />
      <stop offset="100%" stop-color="#1B2534" />
    </linearGradient>
    <linearGradient id="area" x1="0" x2="0" y1="0" y2="1">
      <stop offset="0%" stop-color="#6984AA" stop-opacity="0.95" />
      <stop offset="100%" stop-color="#6984AA" stop-opacity="0.05" />
    </linearGradient>
    <style>
      .title { font: 700 21px 'Segoe UI', Arial, sans-serif; fill: #809EC5; }
      .login { font: 700 12px 'Segoe UI', Arial, sans-serif; fill: #BBBFC5; }
      .value { font: 700 12px 'Segoe UI', Arial, sans-serif; fill: #F8FAFC; }
      .axis { font: 600 9px 'Segoe UI', Arial, sans-serif; fill: #BBBFC5; }
      .xaxis { font: 600 8px 'Segoe UI', Arial, sans-serif; fill: #9CA1A9; }
      .meta { font: 600 10px 'Segoe UI', Arial, sans-serif; fill: #798089; }
      .chart-title { font: 700 8px 'Segoe UI', Arial, sans-serif; fill: #809EC5; }
    </style>
  </defs>
  <rect x="0" y="0" width="495" height="210" rx="8" fill="url(#bg)" />
  <rect x="1" y="1" width="493" height="208" rx="7" fill="none" stroke="#566C88" />
  <text x="18" y="26" class="title">ochtum (Ochtum)</text>
  <text x="18" y="45" class="login">@ochtum</text>
  <circle cx="20" cy="66" r="3" fill="#809EC5" />
  <text x="28" y="69" class="value">411 Contributions in 2026</text>
  <circle cx="20" cy="82" r="3" fill="#8085C5" />
  <text x="28" y="85" class="value">22 Public Repositories</text>
  <circle cx="20" cy="98" r="3" fill="#80B7C5" />
  <text x="28" y="101" class="value">44 Private Repositories</text>
  <circle cx="20" cy="114" r="3" fill="#9780C5" />
  <text x="28" y="117" class="value">95 Forked Repositories</text>
  <circle cx="20" cy="130" r="3" fill="#80C5B7" />
  <text x="28" y="133" class="value">Joined GitHub 3 years ago</text>
  <circle cx="20" cy="146" r="3" fill="#B580C5" />
  <text x="28" y="149" class="value">Tokyo</text>
  <text x="365" y="14" class="chart-title">contributions in the last year</text>
  <rect x="224" y="26" width="245" height="132" rx="4" fill="#37404E" fill-opacity="0.34" />
  <line x1="224" y1="158" x2="469" y2="158" stroke="#3C4C62" stroke-opacity="0.55" />
  <text x="475" y="161" class="axis">0</text>
  <line x1="224" y1="149.75" x2="469" y2="149.75" stroke="#3C4C62" stroke-opacity="0.55" />
  <text x="475" y="152.75" class="axis">20</text>
  <line x1="224" y1="141.5" x2="469" y2="141.5" stroke="#3C4C62" stroke-opacity="0.55" />
  <text x="475" y="144.5" class="axis">40</text>
  <line x1="224" y1="133.25" x2="469" y2="133.25" stroke="#3C4C62" stroke-opacity="0.55" />
  <text x="475" y="136.25" class="axis">60</text>
  <line x1="224" y1="125" x2="469" y2="125" stroke="#3C4C62" stroke-opacity="0.55" />
  <text x="475" y="128" class="axis">80</text>
  <line x1="224" y1="116.75" x2="469" y2="116.75" stroke="#3C4C62" stroke-opacity="0.55" />
  <text x="475" y="119.75" class="axis">100</text>
  <line x1="224" y1="108.5" x2="469" y2="108.5" stroke="#3C4C62" stroke-opacity="0.55" />
  <text x="475" y="111.5" class="axis">120</text>
  <line x1="224" y1="100.25" x2="469" y2="100.25" stroke="#3C4C62" stroke-opacity="0.55" />
  <text x="475" y="103.25" class="axis">140</text>
  <line x1="224" y1="92" x2="469" y2="92" stroke="#3C4C62" stroke-opacity="0.55" />
  <text x="475" y="95" class="axis">160</text>
  <line x1="224" y1="83.75" x2="469" y2="83.75" stroke="#3C4C62" stroke-opacity="0.55" />
  <text x="475" y="86.75" class="axis">180</text>
  <line x1="224" y1="75.5" x2="469" y2="75.5" stroke="#3C4C62" stroke-opacity="0.55" />
  <text x="475" y="78.5" class="axis">200</text>
  <line x1="224" y1="67.25" x2="469" y2="67.25" stroke="#3C4C62" stroke-opacity="0.55" />
  <text x="475" y="70.25" class="axis">220</text>
  <line x1="224" y1="59" x2="469" y2="59" stroke="#3C4C62" stroke-opacity="0.55" />
  <text x="475" y="62" class="axis">240</text>
  <line x1="224" y1="50.75" x2="469" y2="50.75" stroke="#3C4C62" stroke-opacity="0.55" />
  <text x="475" y="53.75" class="axis">260</text>
  <line x1="224" y1="42.5" x2="469" y2="42.5" stroke="#3C4C62" stroke-opacity="0.55" />
  <text x="475" y="45.5" class="axis">280</text>
  <line x1="224" y1="34.25" x2="469" y2="34.25" stroke="#3C4C62" stroke-opacity="0.55" />
  <text x="475" y="37.25" class="axis">300</text>
  <line x1="224" y1="26" x2="469" y2="26" stroke="#3C4C62" stroke-opacity="0.55" />
  <text x="475" y="29" class="axis">320</text>
  <path d="M 224 158 L 224 156.35 C 227.4 152.71 237.61 145.28 244.42 134.49 C 251.22 123.69 258.03 91.45 264.83 91.59 C 271.64 91.73 278.44 125 285.25 135.31 C 292.06 145.63 298.86 150.64 305.67 153.46 C 312.47 156.28 319.28 152.09 326.08 152.23 C 332.89 152.36 339.69 155.94 346.5 154.29 C 353.31 152.64 360.11 144.66 366.92 142.33 C 373.72 139.99 380.53 139.85 387.33 140.26 C 394.14 140.68 400.94 143.49 407.75 144.8 C 414.56 146.11 421.36 150.92 428.17 148.1 C 434.97 145.28 441.78 147.83 448.58 127.89 C 455.39 107.95 465.6 45.04 469 28.48 L 469 158 Z" fill="url(#area)" stroke="none" />
  <path d="M 224 156.35 C 227.4 152.71 237.61 145.28 244.42 134.49 C 251.22 123.69 258.03 91.45 264.83 91.59 C 271.64 91.73 278.44 125 285.25 135.31 C 292.06 145.63 298.86 150.64 305.67 153.46 C 312.47 156.28 319.28 152.09 326.08 152.23 C 332.89 152.36 339.69 155.94 346.5 154.29 C 353.31 152.64 360.11 144.66 366.92 142.33 C 373.72 139.99 380.53 139.85 387.33 140.26 C 394.14 140.68 400.94 143.49 407.75 144.8 C 414.56 146.11 421.36 150.92 428.17 148.1 C 434.97 145.28 441.78 147.83 448.58 127.89 C 455.39 107.95 465.6 45.04 469 28.48" fill="none" stroke="#809EC5" stroke-width="2" />
  <text x="224" y="171" class="xaxis" text-anchor="middle">25/03</text>
  <text x="264.83" y="171" class="xaxis" text-anchor="middle">25/05</text>
  <text x="305.67" y="171" class="xaxis" text-anchor="middle">25/07</text>
  <text x="346.5" y="171" class="xaxis" text-anchor="middle">25/09</text>
  <text x="387.33" y="171" class="xaxis" text-anchor="middle">25/11</text>
  <text x="428.17" y="171" class="xaxis" text-anchor="middle">26/01</text>
  <text x="469" y="171" class="xaxis" text-anchor="middle">26/03</text>
  <text x="18" y="198" class="meta">Updated 2026-03-23 11:57 JST</text>
</svg>

