<svg xmlns="http://www.w3.org/2000/svg" width="495" height="210" viewBox="0 0 495 210" role="img" aria-label="GitHub profile stats with yearly contribution trend">
  <defs>
    <linearGradient id="bg" x1="0" x2="1" y1="0" y2="1">
      <stop offset="0%" stop-color="#1F2937" />
      <stop offset="100%" stop-color="#1B2534" />
    </linearGradient>
    <linearGradient id="area" x1="0" x2="0" y1="0" y2="1">
      <stop offset="0%" stop-color="#6984AA" stop-opacity="0.95" />
      <stop offset="100%" stop-color="#6984AA" stop-opacity="0.05" />
    </linearGradient>
    <style>
      .title { font: 700 21px 'Segoe UI', Arial, sans-serif; fill: #809EC5; }
      .login { font: 700 12px 'Segoe UI', Arial, sans-serif; fill: #BBBFC5; }
      .value { font: 700 12px 'Segoe UI', Arial, sans-serif; fill: #F8FAFC; }
      .axis { font: 600 9px 'Segoe UI', Arial, sans-serif; fill: #BBBFC5; }
      .xaxis { font: 600 8px 'Segoe UI', Arial, sans-serif; fill: #9CA1A9; }
      .meta { font: 600 10px 'Segoe UI', Arial, sans-serif; fill: #798089; }
      .chart-title { font: 700 8px 'Segoe UI', Arial, sans-serif; fill: #809EC5; }
    </style>
  </defs>
  <rect x="0" y="0" width="495" height="210" rx="8" fill="url(#bg)" />
  <rect x="1" y="1" width="493" height="208" rx="7" fill="none" stroke="#566C88" />
  <text x="18" y="26" class="title">ochtum (Ochtum)</text>
  <text x="18" y="45" class="login">@ochtum</text>
  <circle cx="20" cy="66" r="3" fill="#809EC5" />
  <text x="28" y="69" class="value">535 Contributions in 2026</text>
  <circle cx="20" cy="82" r="3" fill="#8085C5" />
  <text x="28" y="85" class="value">23 Public Repositories</text>
  <circle cx="20" cy="98" r="3" fill="#80B7C5" />
  <text x="28" y="101" class="value">52 Private Repositories</text>
  <circle cx="20" cy="114" r="3" fill="#9780C5" />
  <text x="28" y="117" class="value">95 Forked Repositories</text>
  <circle cx="20" cy="130" r="3" fill="#80C5B7" />
  <text x="28" y="133" class="value">Joined GitHub 3 years ago</text>
  <circle cx="20" cy="146" r="3" fill="#B580C5" />
  <text x="28" y="149" class="value">Tokyo</text>
  <text x="365" y="14" class="chart-title">contributions in the last year</text>
  <rect x="224" y="26" width="245" height="132" rx="4" fill="#37404E" fill-opacity="0.34" />
  <line x1="224" y1="158" x2="469" y2="158" stroke="#3C4C62" stroke-opacity="0.55" />
  <text x="475" y="161" class="axis">0</text>
  <line x1="224" y1="151.71" x2="469" y2="151.71" stroke="#3C4C62" stroke-opacity="0.55" />
  <text x="475" y="154.71" class="axis">20</text>
  <line x1="224" y1="145.43" x2="469" y2="145.43" stroke="#3C4C62" stroke-opacity="0.55" />
  <text x="475" y="148.43" class="axis">40</text>
  <line x1="224" y1="139.14" x2="469" y2="139.14" stroke="#3C4C62" stroke-opacity="0.55" />
  <text x="475" y="142.14" class="axis">60</text>
  <line x1="224" y1="132.86" x2="469" y2="132.86" stroke="#3C4C62" stroke-opacity="0.55" />
  <text x="475" y="135.86" class="axis">80</text>
  <line x1="224" y1="126.57" x2="469" y2="126.57" stroke="#3C4C62" stroke-opacity="0.55" />
  <text x="475" y="129.57" class="axis">100</text>
  <line x1="224" y1="120.29" x2="469" y2="120.29" stroke="#3C4C62" stroke-opacity="0.55" />
  <text x="475" y="123.29" class="axis">120</text>
  <line x1="224" y1="114" x2="469" y2="114" stroke="#3C4C62" stroke-opacity="0.55" />
  <text x="475" y="117" class="axis">140</text>
  <line x1="224" y1="107.71" x2="469" y2="107.71" stroke="#3C4C62" stroke-opacity="0.55" />
  <text x="475" y="110.71" class="axis">160</text>
  <line x1="224" y1="101.43" x2="469" y2="101.43" stroke="#3C4C62" stroke-opacity="0.55" />
  <text x="475" y="104.43" class="axis">180</text>
  <line x1="224" y1="95.14" x2="469" y2="95.14" stroke="#3C4C62" stroke-opacity="0.55" />
  <text x="475" y="98.14" class="axis">200</text>
  <line x1="224" y1="88.86" x2="469" y2="88.86" stroke="#3C4C62" stroke-opacity="0.55" />
  <text x="475" y="91.86" class="axis">220</text>
  <line x1="224" y1="82.57" x2="469" y2="82.57" stroke="#3C4C62" stroke-opacity="0.55" />
  <text x="475" y="85.57" class="axis">240</text>
  <line x1="224" y1="76.29" x2="469" y2="76.29" stroke="#3C4C62" stroke-opacity="0.55" />
  <text x="475" y="79.29" class="axis">260</text>
  <line x1="224" y1="70" x2="469" y2="70" stroke="#3C4C62" stroke-opacity="0.55" />
  <text x="475" y="73" class="axis">280</text>
  <line x1="224" y1="63.71" x2="469" y2="63.71" stroke="#3C4C62" stroke-opacity="0.55" />
  <text x="475" y="66.71" class="axis">300</text>
  <line x1="224" y1="57.43" x2="469" y2="57.43" stroke="#3C4C62" stroke-opacity="0.55" />
  <text x="475" y="60.43" class="axis">320</text>
  <line x1="224" y1="51.14" x2="469" y2="51.14" stroke="#3C4C62" stroke-opacity="0.55" />
  <text x="475" y="54.14" class="axis">340</text>
  <line x1="224" y1="44.86" x2="469" y2="44.86" stroke="#3C4C62" stroke-opacity="0.55" />
  <text x="475" y="47.86" class="axis">360</text>
  <line x1="224" y1="38.57" x2="469" y2="38.57" stroke="#3C4C62" stroke-opacity="0.55" />
  <text x="475" y="41.57" class="axis">380</text>
  <line x1="224" y1="32.29" x2="469" y2="32.29" stroke="#3C4C62" stroke-opacity="0.55" />
  <text x="475" y="35.29" class="axis">400</text>
  <line x1="224" y1="26" x2="469" y2="26" stroke="#3C4C62" stroke-opacity="0.55" />
  <text x="475" y="29" class="axis">420</text>
  <path d="M 224 158 L 224 107.71 C 227.4 113.21 237.61 132.91 244.42 140.71 C 251.22 148.52 258.03 152.4 264.83 154.54 C 271.64 156.69 278.44 153.5 285.25 153.6 C 292.06 153.7 298.86 156.43 305.67 155.17 C 312.47 153.91 319.28 147.84 326.08 146.06 C 332.89 144.28 339.69 144.17 346.5 144.49 C 353.31 144.8 360.11 146.95 366.92 147.94 C 373.72 148.94 380.53 152.6 387.33 150.46 C 394.14 148.31 400.94 155.07 407.75 135.06 C 414.56 115.05 421.36 28.15 428.17 30.4 C 434.97 32.65 441.78 127.41 448.58 148.57 C 455.39 169.73 465.6 155.9 469 157.37 L 469 158 Z" fill="url(#area)" stroke="none" />
  <path d="M 224 107.71 C 227.4 113.21 237.61 132.91 244.42 140.71 C 251.22 148.52 258.03 152.4 264.83 154.54 C 271.64 156.69 278.44 153.5 285.25 153.6 C 292.06 153.7 298.86 156.43 305.67 155.17 C 312.47 153.91 319.28 147.84 326.08 146.06 C 332.89 144.28 339.69 144.17 346.5 144.49 C 353.31 144.8 360.11 146.95 366.92 147.94 C 373.72 148.94 380.53 152.6 387.33 150.46 C 394.14 148.31 400.94 155.07 407.75 135.06 C 414.56 115.05 421.36 28.15 428.17 30.4 C 434.97 32.65 441.78 127.41 448.58 148.57 C 455.39 169.73 465.6 155.9 469 157.37" fill="none" stroke="#809EC5" stroke-width="2" />
  <text x="224" y="171" class="xaxis" text-anchor="middle">25/05</text>
  <text x="264.83" y="171" class="xaxis" text-anchor="middle">25/07</text>
  <text x="305.67" y="171" class="xaxis" text-anchor="middle">25/09</text>
  <text x="346.5" y="171" class="xaxis" text-anchor="middle">25/11</text>
  <text x="387.33" y="171" class="xaxis" text-anchor="middle">26/01</text>
  <text x="428.17" y="171" class="xaxis" text-anchor="middle">26/03</text>
  <text x="469" y="171" class="xaxis" text-anchor="middle">26/05</text>
  <text x="18" y="198" class="meta">Updated 2026-05-04 11:59 JST</text>
</svg>

