<svg xmlns="http://www.w3.org/2000/svg" width="495" height="210" viewBox="0 0 495 210" role="img" aria-label="GitHub profile stats with yearly contribution trend">
  <defs>
    <linearGradient id="bg" x1="0" x2="1" y1="0" y2="1">
      <stop offset="0%" stop-color="#1F2937" />
      <stop offset="100%" stop-color="#1B2534" />
    </linearGradient>
    <linearGradient id="area" x1="0" x2="0" y1="0" y2="1">
      <stop offset="0%" stop-color="#6984AA" stop-opacity="0.95" />
      <stop offset="100%" stop-color="#6984AA" stop-opacity="0.05" />
    </linearGradient>
    <style>
      .title { font: 700 21px 'Segoe UI', Arial, sans-serif; fill: #809EC5; }
      .login { font: 700 12px 'Segoe UI', Arial, sans-serif; fill: #BBBFC5; }
      .value { font: 700 12px 'Segoe UI', Arial, sans-serif; fill: #F8FAFC; }
      .axis { font: 600 9px 'Segoe UI', Arial, sans-serif; fill: #BBBFC5; }
      .xaxis { font: 600 8px 'Segoe UI', Arial, sans-serif; fill: #9CA1A9; }
      .meta { font: 600 10px 'Segoe UI', Arial, sans-serif; fill: #798089; }
      .chart-title { font: 700 8px 'Segoe UI', Arial, sans-serif; fill: #809EC5; }
    </style>
  </defs>
  <rect x="0" y="0" width="495" height="210" rx="8" fill="url(#bg)" />
  <rect x="1" y="1" width="493" height="208" rx="7" fill="none" stroke="#566C88" />
  <text x="18" y="26" class="title">ochtum (Ochtum)</text>
  <text x="18" y="45" class="login">@ochtum</text>
  <circle cx="20" cy="66" r="3" fill="#809EC5" />
  <text x="28" y="69" class="value">347 Contributions in 2026</text>
  <circle cx="20" cy="82" r="3" fill="#8085C5" />
  <text x="28" y="85" class="value">22 Public Repositories</text>
  <circle cx="20" cy="98" r="3" fill="#80B7C5" />
  <text x="28" y="101" class="value">43 Private Repositories</text>
  <circle cx="20" cy="114" r="3" fill="#9780C5" />
  <text x="28" y="117" class="value">95 Forked Repositories</text>
  <circle cx="20" cy="130" r="3" fill="#80C5B7" />
  <text x="28" y="133" class="value">Joined GitHub 3 years ago</text>
  <circle cx="20" cy="146" r="3" fill="#B580C5" />
  <text x="28" y="149" class="value">Tokyo</text>
  <text x="365" y="14" class="chart-title">contributions in the last year</text>
  <rect x="224" y="26" width="245" height="132" rx="4" fill="#37404E" fill-opacity="0.34" />
  <line x1="224" y1="158" x2="469" y2="158" stroke="#3C4C62" stroke-opacity="0.55" />
  <text x="475" y="161" class="axis">0</text>
  <line x1="224" y1="147.85" x2="469" y2="147.85" stroke="#3C4C62" stroke-opacity="0.55" />
  <text x="475" y="150.85" class="axis">20</text>
  <line x1="224" y1="137.69" x2="469" y2="137.69" stroke="#3C4C62" stroke-opacity="0.55" />
  <text x="475" y="140.69" class="axis">40</text>
  <line x1="224" y1="127.54" x2="469" y2="127.54" stroke="#3C4C62" stroke-opacity="0.55" />
  <text x="475" y="130.54" class="axis">60</text>
  <line x1="224" y1="117.38" x2="469" y2="117.38" stroke="#3C4C62" stroke-opacity="0.55" />
  <text x="475" y="120.38" class="axis">80</text>
  <line x1="224" y1="107.23" x2="469" y2="107.23" stroke="#3C4C62" stroke-opacity="0.55" />
  <text x="475" y="110.23" class="axis">100</text>
  <line x1="224" y1="97.08" x2="469" y2="97.08" stroke="#3C4C62" stroke-opacity="0.55" />
  <text x="475" y="100.08" class="axis">120</text>
  <line x1="224" y1="86.92" x2="469" y2="86.92" stroke="#3C4C62" stroke-opacity="0.55" />
  <text x="475" y="89.92" class="axis">140</text>
  <line x1="224" y1="76.77" x2="469" y2="76.77" stroke="#3C4C62" stroke-opacity="0.55" />
  <text x="475" y="79.77" class="axis">160</text>
  <line x1="224" y1="66.62" x2="469" y2="66.62" stroke="#3C4C62" stroke-opacity="0.55" />
  <text x="475" y="69.62" class="axis">180</text>
  <line x1="224" y1="56.46" x2="469" y2="56.46" stroke="#3C4C62" stroke-opacity="0.55" />
  <text x="475" y="59.46" class="axis">200</text>
  <line x1="224" y1="46.31" x2="469" y2="46.31" stroke="#3C4C62" stroke-opacity="0.55" />
  <text x="475" y="49.31" class="axis">220</text>
  <line x1="224" y1="36.15" x2="469" y2="36.15" stroke="#3C4C62" stroke-opacity="0.55" />
  <text x="475" y="39.15" class="axis">240</text>
  <line x1="224" y1="26" x2="469" y2="26" stroke="#3C4C62" stroke-opacity="0.55" />
  <text x="475" y="29" class="axis">260</text>
  <path d="M 224 158 L 224 154.45 C 227.4 150.22 237.61 142.09 244.42 129.06 C 251.22 116.03 258.03 76.09 264.83 76.26 C 271.64 76.43 278.44 117.38 285.25 130.08 C 292.06 142.77 298.86 148.95 305.67 152.42 C 312.47 155.88 319.28 150.72 326.08 150.89 C 332.89 151.06 339.69 155.46 346.5 153.43 C 353.31 151.4 360.11 141.58 366.92 138.71 C 373.72 135.83 380.53 135.66 387.33 136.17 C 394.14 136.68 400.94 140.15 407.75 141.75 C 414.56 143.36 421.36 149.28 428.17 145.82 C 434.97 142.35 441.78 140.06 448.58 120.94 C 455.39 101.82 465.6 46.05 469 31.08 L 469 158 Z" fill="url(#area)" stroke="none" />
  <path d="M 224 154.45 C 227.4 150.22 237.61 142.09 244.42 129.06 C 251.22 116.03 258.03 76.09 264.83 76.26 C 271.64 76.43 278.44 117.38 285.25 130.08 C 292.06 142.77 298.86 148.95 305.67 152.42 C 312.47 155.88 319.28 150.72 326.08 150.89 C 332.89 151.06 339.69 155.46 346.5 153.43 C 353.31 151.4 360.11 141.58 366.92 138.71 C 373.72 135.83 380.53 135.66 387.33 136.17 C 394.14 136.68 400.94 140.15 407.75 141.75 C 414.56 143.36 421.36 149.28 428.17 145.82 C 434.97 142.35 441.78 140.06 448.58 120.94 C 455.39 101.82 465.6 46.05 469 31.08" fill="none" stroke="#809EC5" stroke-width="2" />
  <text x="224" y="171" class="xaxis" text-anchor="middle">25/03</text>
  <text x="264.83" y="171" class="xaxis" text-anchor="middle">25/05</text>
  <text x="305.67" y="171" class="xaxis" text-anchor="middle">25/07</text>
  <text x="346.5" y="171" class="xaxis" text-anchor="middle">25/09</text>
  <text x="387.33" y="171" class="xaxis" text-anchor="middle">25/11</text>
  <text x="428.17" y="171" class="xaxis" text-anchor="middle">26/01</text>
  <text x="469" y="171" class="xaxis" text-anchor="middle">26/03</text>
  <text x="18" y="198" class="meta">Updated 2026-03-18 11:57 JST</text>
</svg>

