<svg xmlns="http://www.w3.org/2000/svg" width="495" height="210" viewBox="0 0 495 210" role="img" aria-label="GitHub profile stats with yearly contribution trend">
  <defs>
    <linearGradient id="bg" x1="0" x2="1" y1="0" y2="1">
      <stop offset="0%" stop-color="#1F2937" />
      <stop offset="100%" stop-color="#1B2534" />
    </linearGradient>
    <linearGradient id="area" x1="0" x2="0" y1="0" y2="1">
      <stop offset="0%" stop-color="#6984AA" stop-opacity="0.95" />
      <stop offset="100%" stop-color="#6984AA" stop-opacity="0.05" />
    </linearGradient>
    <style>
      .title { font: 700 21px 'Segoe UI', Arial, sans-serif; fill: #809EC5; }
      .login { font: 700 12px 'Segoe UI', Arial, sans-serif; fill: #BBBFC5; }
      .value { font: 700 12px 'Segoe UI', Arial, sans-serif; fill: #F8FAFC; }
      .axis { font: 600 9px 'Segoe UI', Arial, sans-serif; fill: #BBBFC5; }
      .xaxis { font: 600 8px 'Segoe UI', Arial, sans-serif; fill: #9CA1A9; }
      .meta { font: 600 10px 'Segoe UI', Arial, sans-serif; fill: #798089; }
      .chart-title { font: 700 8px 'Segoe UI', Arial, sans-serif; fill: #809EC5; }
    </style>
  </defs>
  <rect x="0" y="0" width="495" height="210" rx="8" fill="url(#bg)" />
  <rect x="1" y="1" width="493" height="208" rx="7" fill="none" stroke="#566C88" />
  <text x="18" y="26" class="title">ochtum (Ochtum)</text>
  <text x="18" y="45" class="login">@ochtum</text>
  <circle cx="20" cy="66" r="3" fill="#809EC5" />
  <text x="28" y="69" class="value">478 Contributions in 2026</text>
  <circle cx="20" cy="82" r="3" fill="#8085C5" />
  <text x="28" y="85" class="value">22 Public Repositories</text>
  <circle cx="20" cy="98" r="3" fill="#80B7C5" />
  <text x="28" y="101" class="value">45 Private Repositories</text>
  <circle cx="20" cy="114" r="3" fill="#9780C5" />
  <text x="28" y="117" class="value">95 Forked Repositories</text>
  <circle cx="20" cy="130" r="3" fill="#80C5B7" />
  <text x="28" y="133" class="value">Joined GitHub 3 years ago</text>
  <circle cx="20" cy="146" r="3" fill="#B580C5" />
  <text x="28" y="149" class="value">Tokyo</text>
  <text x="365" y="14" class="chart-title">contributions in the last year</text>
  <rect x="224" y="26" width="245" height="132" rx="4" fill="#37404E" fill-opacity="0.34" />
  <line x1="224" y1="158" x2="469" y2="158" stroke="#3C4C62" stroke-opacity="0.55" />
  <text x="475" y="161" class="axis">0</text>
  <line x1="224" y1="151.4" x2="469" y2="151.4" stroke="#3C4C62" stroke-opacity="0.55" />
  <text x="475" y="154.4" class="axis">20</text>
  <line x1="224" y1="144.8" x2="469" y2="144.8" stroke="#3C4C62" stroke-opacity="0.55" />
  <text x="475" y="147.8" class="axis">40</text>
  <line x1="224" y1="138.2" x2="469" y2="138.2" stroke="#3C4C62" stroke-opacity="0.55" />
  <text x="475" y="141.2" class="axis">60</text>
  <line x1="224" y1="131.6" x2="469" y2="131.6" stroke="#3C4C62" stroke-opacity="0.55" />
  <text x="475" y="134.6" class="axis">80</text>
  <line x1="224" y1="125" x2="469" y2="125" stroke="#3C4C62" stroke-opacity="0.55" />
  <text x="475" y="128" class="axis">100</text>
  <line x1="224" y1="118.4" x2="469" y2="118.4" stroke="#3C4C62" stroke-opacity="0.55" />
  <text x="475" y="121.4" class="axis">120</text>
  <line x1="224" y1="111.8" x2="469" y2="111.8" stroke="#3C4C62" stroke-opacity="0.55" />
  <text x="475" y="114.8" class="axis">140</text>
  <line x1="224" y1="105.2" x2="469" y2="105.2" stroke="#3C4C62" stroke-opacity="0.55" />
  <text x="475" y="108.2" class="axis">160</text>
  <line x1="224" y1="98.6" x2="469" y2="98.6" stroke="#3C4C62" stroke-opacity="0.55" />
  <text x="475" y="101.6" class="axis">180</text>
  <line x1="224" y1="92" x2="469" y2="92" stroke="#3C4C62" stroke-opacity="0.55" />
  <text x="475" y="95" class="axis">200</text>
  <line x1="224" y1="85.4" x2="469" y2="85.4" stroke="#3C4C62" stroke-opacity="0.55" />
  <text x="475" y="88.4" class="axis">220</text>
  <line x1="224" y1="78.8" x2="469" y2="78.8" stroke="#3C4C62" stroke-opacity="0.55" />
  <text x="475" y="81.8" class="axis">240</text>
  <line x1="224" y1="72.2" x2="469" y2="72.2" stroke="#3C4C62" stroke-opacity="0.55" />
  <text x="475" y="75.2" class="axis">260</text>
  <line x1="224" y1="65.6" x2="469" y2="65.6" stroke="#3C4C62" stroke-opacity="0.55" />
  <text x="475" y="68.6" class="axis">280</text>
  <line x1="224" y1="59" x2="469" y2="59" stroke="#3C4C62" stroke-opacity="0.55" />
  <text x="475" y="62" class="axis">300</text>
  <line x1="224" y1="52.4" x2="469" y2="52.4" stroke="#3C4C62" stroke-opacity="0.55" />
  <text x="475" y="55.4" class="axis">320</text>
  <line x1="224" y1="45.8" x2="469" y2="45.8" stroke="#3C4C62" stroke-opacity="0.55" />
  <text x="475" y="48.8" class="axis">340</text>
  <line x1="224" y1="39.2" x2="469" y2="39.2" stroke="#3C4C62" stroke-opacity="0.55" />
  <text x="475" y="42.2" class="axis">360</text>
  <line x1="224" y1="32.6" x2="469" y2="32.6" stroke="#3C4C62" stroke-opacity="0.55" />
  <text x="475" y="35.6" class="axis">380</text>
  <line x1="224" y1="26" x2="469" y2="26" stroke="#3C4C62" stroke-opacity="0.55" />
  <text x="475" y="29" class="axis">400</text>
  <path d="M 224 158 L 224 157.67 C 227.4 154.59 237.61 147.99 244.42 139.19 C 251.22 130.39 258.03 104.76 264.83 104.87 C 271.64 104.98 278.44 131.6 285.25 139.85 C 292.06 148.1 298.86 152.12 305.67 154.37 C 312.47 156.63 319.28 153.27 326.08 153.38 C 332.89 153.49 339.69 156.35 346.5 155.03 C 353.31 153.71 360.11 147.33 366.92 145.46 C 373.72 143.59 380.53 143.48 387.33 143.81 C 394.14 144.14 400.94 146.4 407.75 147.44 C 414.56 148.49 421.36 152.34 428.17 150.08 C 434.97 147.83 441.78 153.55 448.58 133.91 C 455.39 114.28 465.6 49.21 469 32.27 L 469 158 Z" fill="url(#area)" stroke="none" />
  <path d="M 224 157.67 C 227.4 154.59 237.61 147.99 244.42 139.19 C 251.22 130.39 258.03 104.76 264.83 104.87 C 271.64 104.98 278.44 131.6 285.25 139.85 C 292.06 148.1 298.86 152.12 305.67 154.37 C 312.47 156.63 319.28 153.27 326.08 153.38 C 332.89 153.49 339.69 156.35 346.5 155.03 C 353.31 153.71 360.11 147.33 366.92 145.46 C 373.72 143.59 380.53 143.48 387.33 143.81 C 394.14 144.14 400.94 146.4 407.75 147.44 C 414.56 148.49 421.36 152.34 428.17 150.08 C 434.97 147.83 441.78 153.55 448.58 133.91 C 455.39 114.28 465.6 49.21 469 32.27" fill="none" stroke="#809EC5" stroke-width="2" />
  <text x="224" y="171" class="xaxis" text-anchor="middle">25/03</text>
  <text x="264.83" y="171" class="xaxis" text-anchor="middle">25/05</text>
  <text x="305.67" y="171" class="xaxis" text-anchor="middle">25/07</text>
  <text x="346.5" y="171" class="xaxis" text-anchor="middle">25/09</text>
  <text x="387.33" y="171" class="xaxis" text-anchor="middle">25/11</text>
  <text x="428.17" y="171" class="xaxis" text-anchor="middle">26/01</text>
  <text x="469" y="171" class="xaxis" text-anchor="middle">26/03</text>
  <text x="18" y="198" class="meta">Updated 2026-03-29 11:58 JST</text>
</svg>

