<svg xmlns="http://www.w3.org/2000/svg" width="495" height="210" viewBox="0 0 495 210" role="img" aria-label="GitHub profile stats with yearly contribution trend">
  <defs>
    <linearGradient id="bg" x1="0" x2="1" y1="0" y2="1">
      <stop offset="0%" stop-color="#1F2937" />
      <stop offset="100%" stop-color="#1B2534" />
    </linearGradient>
    <linearGradient id="area" x1="0" x2="0" y1="0" y2="1">
      <stop offset="0%" stop-color="#6984AA" stop-opacity="0.95" />
      <stop offset="100%" stop-color="#6984AA" stop-opacity="0.05" />
    </linearGradient>
    <style>
      .title { font: 700 21px 'Segoe UI', Arial, sans-serif; fill: #809EC5; }
      .login { font: 700 12px 'Segoe UI', Arial, sans-serif; fill: #BBBFC5; }
      .value { font: 700 12px 'Segoe UI', Arial, sans-serif; fill: #F8FAFC; }
      .axis { font: 600 9px 'Segoe UI', Arial, sans-serif; fill: #BBBFC5; }
      .xaxis { font: 600 8px 'Segoe UI', Arial, sans-serif; fill: #9CA1A9; }
      .meta { font: 600 10px 'Segoe UI', Arial, sans-serif; fill: #798089; }
      .chart-title { font: 700 8px 'Segoe UI', Arial, sans-serif; fill: #809EC5; }
    </style>
  </defs>
  <rect x="0" y="0" width="495" height="210" rx="8" fill="url(#bg)" />
  <rect x="1" y="1" width="493" height="208" rx="7" fill="none" stroke="#566C88" />
  <text x="18" y="26" class="title">ochtum (Ochtum)</text>
  <text x="18" y="45" class="login">@ochtum</text>
  <circle cx="20" cy="66" r="3" fill="#809EC5" />
  <text x="28" y="69" class="value">380 Contributions in 2026</text>
  <circle cx="20" cy="82" r="3" fill="#8085C5" />
  <text x="28" y="85" class="value">22 Public Repositories</text>
  <circle cx="20" cy="98" r="3" fill="#80B7C5" />
  <text x="28" y="101" class="value">44 Private Repositories</text>
  <circle cx="20" cy="114" r="3" fill="#9780C5" />
  <text x="28" y="117" class="value">95 Forked Repositories</text>
  <circle cx="20" cy="130" r="3" fill="#80C5B7" />
  <text x="28" y="133" class="value">Joined GitHub 3 years ago</text>
  <circle cx="20" cy="146" r="3" fill="#B580C5" />
  <text x="28" y="149" class="value">Tokyo</text>
  <text x="365" y="14" class="chart-title">contributions in the last year</text>
  <rect x="224" y="26" width="245" height="132" rx="4" fill="#37404E" fill-opacity="0.34" />
  <line x1="224" y1="158" x2="469" y2="158" stroke="#3C4C62" stroke-opacity="0.55" />
  <text x="475" y="161" class="axis">0</text>
  <line x1="224" y1="149.2" x2="469" y2="149.2" stroke="#3C4C62" stroke-opacity="0.55" />
  <text x="475" y="152.2" class="axis">20</text>
  <line x1="224" y1="140.4" x2="469" y2="140.4" stroke="#3C4C62" stroke-opacity="0.55" />
  <text x="475" y="143.4" class="axis">40</text>
  <line x1="224" y1="131.6" x2="469" y2="131.6" stroke="#3C4C62" stroke-opacity="0.55" />
  <text x="475" y="134.6" class="axis">60</text>
  <line x1="224" y1="122.8" x2="469" y2="122.8" stroke="#3C4C62" stroke-opacity="0.55" />
  <text x="475" y="125.8" class="axis">80</text>
  <line x1="224" y1="114" x2="469" y2="114" stroke="#3C4C62" stroke-opacity="0.55" />
  <text x="475" y="117" class="axis">100</text>
  <line x1="224" y1="105.2" x2="469" y2="105.2" stroke="#3C4C62" stroke-opacity="0.55" />
  <text x="475" y="108.2" class="axis">120</text>
  <line x1="224" y1="96.4" x2="469" y2="96.4" stroke="#3C4C62" stroke-opacity="0.55" />
  <text x="475" y="99.4" class="axis">140</text>
  <line x1="224" y1="87.6" x2="469" y2="87.6" stroke="#3C4C62" stroke-opacity="0.55" />
  <text x="475" y="90.6" class="axis">160</text>
  <line x1="224" y1="78.8" x2="469" y2="78.8" stroke="#3C4C62" stroke-opacity="0.55" />
  <text x="475" y="81.8" class="axis">180</text>
  <line x1="224" y1="70" x2="469" y2="70" stroke="#3C4C62" stroke-opacity="0.55" />
  <text x="475" y="73" class="axis">200</text>
  <line x1="224" y1="61.2" x2="469" y2="61.2" stroke="#3C4C62" stroke-opacity="0.55" />
  <text x="475" y="64.2" class="axis">220</text>
  <line x1="224" y1="52.4" x2="469" y2="52.4" stroke="#3C4C62" stroke-opacity="0.55" />
  <text x="475" y="55.4" class="axis">240</text>
  <line x1="224" y1="43.6" x2="469" y2="43.6" stroke="#3C4C62" stroke-opacity="0.55" />
  <text x="475" y="46.6" class="axis">260</text>
  <line x1="224" y1="34.8" x2="469" y2="34.8" stroke="#3C4C62" stroke-opacity="0.55" />
  <text x="475" y="37.8" class="axis">280</text>
  <line x1="224" y1="26" x2="469" y2="26" stroke="#3C4C62" stroke-opacity="0.55" />
  <text x="475" y="29" class="axis">300</text>
  <path d="M 224 158 L 224 155.36 C 227.4 151.62 237.61 144.29 244.42 132.92 C 251.22 121.55 258.03 87.01 264.83 87.16 C 271.64 87.31 278.44 122.8 285.25 133.8 C 292.06 144.8 298.86 150.15 305.67 153.16 C 312.47 156.17 319.28 151.69 326.08 151.84 C 332.89 151.99 339.69 155.8 346.5 154.04 C 353.31 152.28 360.11 143.77 366.92 141.28 C 373.72 138.79 380.53 138.64 387.33 139.08 C 394.14 139.52 400.94 142.53 407.75 143.92 C 414.56 145.31 421.36 150.45 428.17 147.44 C 434.97 144.43 441.78 144.87 448.58 125.88 C 455.39 106.89 465.6 48.88 469 33.48 L 469 158 Z" fill="url(#area)" stroke="none" />
  <path d="M 224 155.36 C 227.4 151.62 237.61 144.29 244.42 132.92 C 251.22 121.55 258.03 87.01 264.83 87.16 C 271.64 87.31 278.44 122.8 285.25 133.8 C 292.06 144.8 298.86 150.15 305.67 153.16 C 312.47 156.17 319.28 151.69 326.08 151.84 C 332.89 151.99 339.69 155.8 346.5 154.04 C 353.31 152.28 360.11 143.77 366.92 141.28 C 373.72 138.79 380.53 138.64 387.33 139.08 C 394.14 139.52 400.94 142.53 407.75 143.92 C 414.56 145.31 421.36 150.45 428.17 147.44 C 434.97 144.43 441.78 144.87 448.58 125.88 C 455.39 106.89 465.6 48.88 469 33.48" fill="none" stroke="#809EC5" stroke-width="2" />
  <text x="224" y="171" class="xaxis" text-anchor="middle">25/03</text>
  <text x="264.83" y="171" class="xaxis" text-anchor="middle">25/05</text>
  <text x="305.67" y="171" class="xaxis" text-anchor="middle">25/07</text>
  <text x="346.5" y="171" class="xaxis" text-anchor="middle">25/09</text>
  <text x="387.33" y="171" class="xaxis" text-anchor="middle">25/11</text>
  <text x="428.17" y="171" class="xaxis" text-anchor="middle">26/01</text>
  <text x="469" y="171" class="xaxis" text-anchor="middle">26/03</text>
  <text x="18" y="198" class="meta">Updated 2026-03-19 11:57 JST</text>
</svg>

