<svg xmlns="http://www.w3.org/2000/svg" width="640" height="382" viewBox="0 0 640 382" role="img" aria-label="GitHub readme language stats">
  <defs>
    <linearGradient id="card-bg" x1="0" x2="1" y1="0" y2="1">
      <stop offset="0%" stop-color="#0F172A" />
      <stop offset="100%" stop-color="#111827" />
    </linearGradient>
    <style>
      .title { font: 700 24px 'Segoe UI', Arial, sans-serif; fill: #F8FAFC; }
      .sub { font: 500 14px 'Segoe UI', Arial, sans-serif; fill: #CBD5E1; }
      .label { font: 600 13px 'Segoe UI', Arial, sans-serif; }
      .value { font: 600 12px 'Segoe UI', Arial, sans-serif; }
      .muted { font: 500 12px 'Segoe UI', Arial, sans-serif; fill: #94A3B8; }
    </style>
  </defs>
  <rect x="0" y="0" width="640" height="382" rx="18" fill="url(#card-bg)" />
  <rect x="1" y="1" width="638" height="380" rx="17" fill="none" stroke="#1E293B" />
  <text x="32" y="42" class="title">Most Used Languages</text>
  <text x="32" y="66" class="sub">@ochtum | 63 repos | updated 2026-03-06 03:59 JST</text>
  <rect x="32" y="84" width="500" height="22" rx="11" fill="#1F2937" />
  <rect x="32" y="84" width="173.25" height="22" rx="11" fill="#f1e05a" />
  <text x="42" y="99" class="label" fill="#0F172A">JavaScript</text>
  <text x="524" y="99" class="value" fill="#F8FAFC" text-anchor="end">34.65% (1 MB)</text>
  <rect x="32" y="122" width="500" height="22" rx="11" fill="#1F2937" />
  <rect x="32" y="122" width="86.2" height="22" rx="11" fill="#e34c26" />
  <text x="42" y="137" class="label" fill="#0F172A">HTML</text>
  <text x="524" y="137" class="value" fill="#F8FAFC" text-anchor="end">17.24% (511.07 KB)</text>
  <rect x="32" y="160" width="500" height="22" rx="11" fill="#1F2937" />
  <rect x="32" y="160" width="77.5" height="22" rx="11" fill="#178600" />
  <text x="42" y="175" class="label" fill="#F8FAFC">C#</text>
  <text x="524" y="175" class="value" fill="#F8FAFC" text-anchor="end">15.50% (459.54 KB)</text>
  <rect x="32" y="198" width="500" height="22" rx="11" fill="#1F2937" />
  <rect x="32" y="198" width="70.85" height="22" rx="11" fill="#663399" />
  <text x="42" y="213" class="label" fill="#F8FAFC">CSS</text>
  <text x="524" y="213" class="value" fill="#F8FAFC" text-anchor="end">14.17% (420.01 KB)</text>
  <rect x="32" y="236" width="500" height="22" rx="11" fill="#1F2937" />
  <rect x="32" y="236" width="50.95" height="22" rx="11" fill="#3572A5" />
  <text x="42" y="251" class="label" fill="#F8FAFC">Python</text>
  <text x="524" y="251" class="value" fill="#F8FAFC" text-anchor="end">10.19% (302.09 KB)</text>
  <rect x="32" y="274" width="500" height="22" rx="11" fill="#1F2937" />
  <rect x="32" y="274" width="13.05" height="22" rx="11" fill="#3178c6" />
  <text x="42" y="289" class="label" fill="#F8FAFC">TypeScript</text>
  <text x="524" y="289" class="value" fill="#F8FAFC" text-anchor="end">2.61% (77.48 KB)</text>
  <text x="32" y="362" class="muted">Total code size: 2.89 MB | Generated by github-readme-stats</text>
</svg>

