<svg xmlns="http://www.w3.org/2000/svg" width="640" height="382" viewBox="0 0 640 382" role="img" aria-label="GitHub readme language stats">
  <defs>
    <linearGradient id="card-bg" x1="0" x2="1" y1="0" y2="1">
      <stop offset="0%" stop-color="#0F172A" />
      <stop offset="100%" stop-color="#111827" />
    </linearGradient>
    <style>
      .title { font: 700 24px 'Segoe UI', Arial, sans-serif; fill: #F8FAFC; }
      .sub { font: 500 14px 'Segoe UI', Arial, sans-serif; fill: #CBD5E1; }
      .label { font: 600 13px 'Segoe UI', Arial, sans-serif; fill: #E2E8F0; }
      .value { font: 600 12px 'Segoe UI', Arial, sans-serif; fill: #E2E8F0; }
      .muted { font: 500 12px 'Segoe UI', Arial, sans-serif; fill: #94A3B8; }
    </style>
  </defs>
  <rect x="0" y="0" width="640" height="382" rx="18" fill="url(#card-bg)" />
  <rect x="1" y="1" width="638" height="380" rx="17" fill="none" stroke="#1E293B" />
  <text x="32" y="42" class="title">GitHub Readme Stats</text>
  <text x="32" y="66" class="sub">@ochtum | 63 repos | updated 2026-03-05 18:19 UTC</text>
  <rect x="32" y="84" width="500" height="22" rx="11" fill="#1F2937" />
  <rect x="32" y="84" width="174.8" height="22" rx="11" fill="#f1e05a" />
  <text x="42" y="99" class="label">JavaScript</text>
  <text x="524" y="99" class="value" text-anchor="end">34.96% (1 MB)</text>
  <rect x="32" y="122" width="500" height="22" rx="11" fill="#1F2937" />
  <rect x="32" y="122" width="87" height="22" rx="11" fill="#e34c26" />
  <text x="42" y="137" class="label">HTML</text>
  <text x="524" y="137" class="value" text-anchor="end">17.40% (511.07 KB)</text>
  <rect x="32" y="160" width="500" height="22" rx="11" fill="#1F2937" />
  <rect x="32" y="160" width="73.65" height="22" rx="11" fill="#178600" />
  <text x="42" y="175" class="label">C#</text>
  <text x="524" y="175" class="value" text-anchor="end">14.73% (432.79 KB)</text>
  <rect x="32" y="198" width="500" height="22" rx="11" fill="#1F2937" />
  <rect x="32" y="198" width="71.5" height="22" rx="11" fill="#663399" />
  <text x="42" y="213" class="label">CSS</text>
  <text x="524" y="213" class="value" text-anchor="end">14.30% (420.01 KB)</text>
  <rect x="32" y="236" width="500" height="22" rx="11" fill="#1F2937" />
  <rect x="32" y="236" width="51.4" height="22" rx="11" fill="#3572A5" />
  <text x="42" y="251" class="label">Python</text>
  <text x="524" y="251" class="value" text-anchor="end">10.28% (302.09 KB)</text>
  <rect x="32" y="274" width="500" height="22" rx="11" fill="#1F2937" />
  <rect x="32" y="274" width="13.2" height="22" rx="11" fill="#3178c6" />
  <text x="42" y="289" class="label">TypeScript</text>
  <text x="524" y="289" class="value" text-anchor="end">2.64% (77.48 KB)</text>
  <text x="32" y="362" class="muted">Total code size: 2.87 MB | Generated by github-readme-stats</text>
</svg>

