<svg xmlns="http://www.w3.org/2000/svg" width="640" height="296" viewBox="0 0 640 296" role="img" aria-label="GitHub readme language stats">
  <defs>
    <linearGradient id="card-bg" x1="0" x2="1" y1="0" y2="1">
      <stop offset="0%" stop-color="#1F2937" />
      <stop offset="100%" stop-color="#1B2534" />
    </linearGradient>
    <style>
      .title { font: 700 24px 'Segoe UI', Arial, sans-serif; fill: #809EC5; }
      .sub { font: 500 14px 'Segoe UI', Arial, sans-serif; fill: #BBBFC5; }
      .label { font: 600 13px 'Segoe UI', Arial, sans-serif; }
      .value { font: 600 12px 'Segoe UI', Arial, sans-serif; }
      .muted { font: 500 12px 'Segoe UI', Arial, sans-serif; fill: #798089; }
    </style>
  </defs>
  <rect x="0" y="0" width="640" height="296" rx="18" fill="url(#card-bg)" />
  <rect x="1" y="1" width="638" height="294" rx="17" fill="none" stroke="#566C88" />
  <text x="24" y="42" class="title">Most Used Languages</text>
  <text x="24" y="66" class="sub">@ochtum | 66 repos | updated 2026-03-28 11:56 JST</text>
  <rect x="24" y="82" width="592" height="20" rx="10" fill="#525A66" />
  <rect x="24" y="82" width="209.57" height="20" rx="10" fill="#f1e05a" />
  <text x="34" y="97" class="label" fill="#0F172A">JavaScript</text>
  <text x="608" y="97" class="value" fill="#F8FAFC" text-anchor="end">35.40%</text>
  <rect x="24" y="110" width="592" height="20" rx="10" fill="#525A66" />
  <rect x="24" y="110" width="140.72" height="20" rx="10" fill="#178600" />
  <text x="34" y="125" class="label" fill="#F8FAFC">C#</text>
  <text x="608" y="125" class="value" fill="#F8FAFC" text-anchor="end">23.77%</text>
  <rect x="24" y="138" width="592" height="20" rx="10" fill="#525A66" />
  <rect x="24" y="138" width="83.12" height="20" rx="10" fill="#e34c26" />
  <text x="34" y="153" class="label" fill="#0F172A">HTML</text>
  <text x="608" y="153" class="value" fill="#F8FAFC" text-anchor="end">14.04%</text>
  <rect x="24" y="166" width="592" height="20" rx="10" fill="#525A66" />
  <rect x="24" y="166" width="81.7" height="20" rx="10" fill="#663399" />
  <text x="34" y="181" class="label" fill="#F8FAFC">CSS</text>
  <text x="608" y="181" class="value" fill="#F8FAFC" text-anchor="end">13.80%</text>
  <rect x="24" y="194" width="592" height="20" rx="10" fill="#525A66" />
  <rect x="24" y="194" width="47.36" height="20" rx="10" fill="#3572A5" />
  <text x="34" y="209" class="label" fill="#F8FAFC">Python</text>
  <text x="608" y="209" class="value" fill="#F8FAFC" text-anchor="end">8.00%</text>
  <rect x="24" y="222" width="592" height="20" rx="10" fill="#525A66" />
  <rect x="24" y="222" width="9" height="20" rx="10" fill="#3178c6" />
  <text x="34" y="237" class="label" fill="#F8FAFC">TypeScript</text>
  <text x="608" y="237" class="value" fill="#F8FAFC" text-anchor="end">1.52%</text>
  <text x="24" y="282" class="muted">Generated by GitHubReadMeStats</text>
</svg>

