<svg xmlns="http://www.w3.org/2000/svg" width="495" height="228" viewBox="0 0 495 228" role="img" aria-label="Repository card for ochtum/GoogleDriveAddPermission">
  <defs>
    <linearGradient id="bg" x1="0" x2="1" y1="0" y2="1">
      <stop offset="0%" stop-color="#111827" />
      <stop offset="100%" stop-color="#0B1120" />
    </linearGradient>
    <style>
      .title { font: 700 24px 'Segoe UI', Arial, sans-serif; fill: #60A5FA; }
      .desc { font: 500 13px 'Segoe UI', Arial, sans-serif; fill: #22D3EE; }
      .traffic-label { font: 600 10px 'Segoe UI', Arial, sans-serif; fill: #93C5FD; }
      .traffic-value { font: 700 15px 'Segoe UI', Arial, sans-serif; fill: #E2E8F0; }
      .meta { font: 600 12px 'Segoe UI', Arial, sans-serif; fill: #E2E8F0; }
      .sub { font: 500 11px 'Segoe UI', Arial, sans-serif; fill: #94A3B8; }
      .badge-text { font: 700 9px 'Segoe UI', Arial, sans-serif; text-anchor: middle; }
      .hint { font: 500 10px 'Segoe UI', Arial, sans-serif; fill: #64748B; }
      .traffic-panel { fill: #0A1E3A; fill-opacity: 0.55; stroke: #1D4ED8; stroke-opacity: 0.65; }
      .traffic-sep { stroke: #1D4ED8; stroke-opacity: 0.45; }
      .icon-frame { fill: #0F1E3D; stroke: #3B82F6; stroke-width: 1.4; }
      .icon-image-bg { fill: #0B1224; }
      .icon-shape { fill: none; stroke: #7DD3FC; stroke-width: 1.7; stroke-linecap: round; stroke-linejoin: round; }
      .icon-dot { fill: #22D3EE; }
    </style>
    <clipPath id="iconClip">
      <rect x="4" y="4" width="20" height="20" rx="4" />
    </clipPath>
  </defs>
  <rect x="0" y="0" width="495" height="228" rx="8" fill="url(#bg)" />
  <rect x="1" y="1" width="493" height="226" rx="7" fill="none" stroke="#334155" />
  <g transform="translate(24 18)">
    <rect x="0" y="0" width="28" height="28" rx="7" class="icon-frame" />
    <path d="M6 10h6l2.2 3H22v9H6z" class="icon-shape" />
    <path d="M6 13h16" class="icon-shape" />
    <circle cx="20" cy="8" r="2" class="icon-dot" />
  </g>
  <text x="62" y="40" class="title">GoogleDriveAddPermission</text>
  <text x="24" y="70" class="desc">Sample source for GoogleDrive access right</text>
  <text x="24" y="86" class="desc">s batch grant script.</text>
  <rect x="270" y="92" width="201" height="88" rx="8" class="traffic-panel" />
  <line x1="370" y1="100" x2="370" y2="172" class="traffic-sep" />
  <line x1="278" y1="136" x2="463" y2="136" class="traffic-sep" />
  <text x="284" y="110" class="traffic-label">Git Clones</text>
  <text x="284" y="128" class="traffic-value">1</text>
  <text x="382" y="110" class="traffic-label">Unique Cloners</text>
  <text x="382" y="128" class="traffic-value">1</text>
  <text x="284" y="152" class="traffic-label">Total Views</text>
  <text x="284" y="170" class="traffic-value">0</text>
  <text x="382" y="152" class="traffic-label">Unique Visitors</text>
  <text x="382" y="170" class="traffic-value">0</text>
  <text x="24" y="223" class="hint">Traffic since 2026-02-18 (last 2026-03-03)</text>
  <circle cx="28" cy="196" r="5" fill="#f1e05a" />
  <text x="40" y="200" class="meta">JavaScript</text>
  <text x="144" y="200" class="meta">★ 0</text>
  <text x="208" y="200" class="meta">⑂ 0</text>
  <text x="24" y="214" class="sub">ochtum/GoogleDriveAddPermission</text>
  <rect x="413" y="203" width="58" height="15" rx="7" fill="#0F766E" stroke="#14B8A6" />
  <text x="442" y="213" class="badge-text" fill="#CCFBF1">PUBLIC</text>
</svg>

