<svg xmlns="http://www.w3.org/2000/svg" width="495" height="228" viewBox="0 0 495 228" role="img" aria-label="Repository card for ochtum/SlackEmojiBookmaker">
  <defs>
    <linearGradient id="bg" x1="0" x2="1" y1="0" y2="1">
      <stop offset="0%" stop-color="#111827" />
      <stop offset="100%" stop-color="#0B1120" />
    </linearGradient>
    <style>
      .title { font: 700 24px 'Segoe UI', Arial, sans-serif; fill: #60A5FA; }
      .desc { font: 500 13px 'Segoe UI', Arial, sans-serif; fill: #22D3EE; }
      .traffic { font: 600 11px 'Segoe UI', Arial, sans-serif; fill: #BFDBFE; }
      .meta { font: 600 12px 'Segoe UI', Arial, sans-serif; fill: #E2E8F0; }
      .sub { font: 500 11px 'Segoe UI', Arial, sans-serif; fill: #94A3B8; }
      .badge-text { font: 700 9px 'Segoe UI', Arial, sans-serif; text-anchor: middle; }
      .hint { font: 500 10px 'Segoe UI', Arial, sans-serif; fill: #64748B; }
      .icon-frame { fill: #0F1E3D; stroke: #3B82F6; stroke-width: 1.4; }
      .icon-image-bg { fill: #0B1224; }
      .icon-shape { fill: none; stroke: #7DD3FC; stroke-width: 1.7; stroke-linecap: round; stroke-linejoin: round; }
      .icon-dot { fill: #22D3EE; }
    </style>
    <clipPath id="iconClip">
      <rect x="4" y="4" width="20" height="20" rx="4" />
    </clipPath>
  </defs>
  <rect x="0" y="0" width="495" height="228" rx="8" fill="url(#bg)" />
  <rect x="1" y="1" width="493" height="226" rx="7" fill="none" stroke="#334155" />
  <g transform="translate(24 18)">
    <rect x="0" y="0" width="28" height="28" rx="7" class="icon-frame" />
    <path d="M6 10h6l2.2 3H22v9H6z" class="icon-shape" />
    <path d="M6 13h16" class="icon-shape" />
    <circle cx="20" cy="8" r="2" class="icon-dot" />
  </g>
  <text x="62" y="40" class="title">SlackEmojiBookmaker</text>
  <text x="24" y="70" class="desc">Slackの画面右端に「ピッカー表示」ボタンを表示</text>
  <text x="24" y="86" class="desc">し、登録済みのお気に入り絵文字から選択できます</text>
  <text x="24" y="102" class="desc">。</text>
  <text x="24" y="124" class="traffic">Git Clones total: 19</text>
  <text x="24" y="138" class="traffic">Unique cloners total: 15</text>
  <text x="24" y="152" class="traffic">Total views total: 29</text>
  <text x="24" y="166" class="traffic">Unique visitors total: 2</text>
  <text x="24" y="223" class="hint">Traffic since 2026-02-19 (last 2026-03-04)</text>
  <circle cx="28" cy="187" r="5" fill="#f1e05a" />
  <text x="40" y="191" class="meta">JavaScript</text>
  <text x="220" y="191" class="meta">★ 0</text>
  <text x="300" y="191" class="meta">⑂ 0</text>
  <text x="24" y="208" class="sub">ochtum/SlackEmojiBookmaker</text>
  <rect x="413" y="197" width="58" height="15" rx="7" fill="#0F766E" stroke="#14B8A6" />
  <text x="442" y="207" class="badge-text" fill="#CCFBF1">PUBLIC</text>
</svg>

